REM DIRINDEX 1\2,1\3
REM DIRNAME cjc133,folder01,folder02
TITLE ""
FILE "DISC1Track23.mp3" MP3
  TRACK 01 AUDIO
    TITLE "0:"
    INDEX 01 00:00:00
  TRACK 02 AUDIO
    TITLE "3:cjc133_1014"
    INDEX 01 00:00:21
  TRACK 03 AUDIO
    TITLE "0:"
    INDEX 01 00:01:48
  TRACK 04 AUDIO
    TITLE "2:cjc133_1015"
    INDEX 01 00:02:26
  TRACK 05 AUDIO
    TITLE "2:cjc133_1016"
    INDEX 01 00:05:14
  TRACK 06 AUDIO
    TITLE "2:cjc133_1017"
    INDEX 01 00:08:07
  TRACK 07 AUDIO
    TITLE "0:"
    INDEX 01 00:10:06
  TRACK 08 AUDIO
    TITLE "2:cjc133_1018"
    INDEX 01 00:10:55
  TRACK 09 AUDIO
    TITLE "2:cjc133_1019"
    INDEX 01 00:12:09
  TRACK 10 AUDIO
    TITLE "2:cjc133_1020"
    INDEX 01 00:15:44
  TRACK 11 AUDIO
    TITLE "0:"
    INDEX 01 00:18:11
  TRACK 12 AUDIO
    TITLE "2:cjc133_1021"
    INDEX 01 00:18:56
  TRACK 13 AUDIO
    TITLE "2:cjc133_1022"
    INDEX 01 00:20:41
  TRACK 14 AUDIO
    TITLE "2:cjc133_1023"
    INDEX 01 00:24:39
  TRACK 15 AUDIO
    TITLE "0:"
    INDEX 01 00:27:41
  TRACK 16 AUDIO
    TITLE "2:cjc133_1024"
    INDEX 01 00:28:19
  TRACK 17 AUDIO
    TITLE "2:cjc133_1025"
    INDEX 01 00:29:42
  TRACK 18 AUDIO
    TITLE "2:cjc133_1026"
    INDEX 01 00:33:44
  TRACK 19 AUDIO
    TITLE "0:"
    INDEX 01 00:36:50
  TRACK 20 AUDIO
    TITLE "2:cjc133_1027"
    INDEX 01 00:37:22
  TRACK 21 AUDIO
    TITLE "2:cjc133_1028"
    INDEX 01 00:41:26
  TRACK 22 AUDIO
    TITLE "2:cjc133_1029"
    INDEX 01 00:45:12
  TRACK 23 AUDIO
    TITLE "0:"
    INDEX 01 00:48:00
  TRACK 24 AUDIO
    TITLE "2:cjc133_1030"
    INDEX 01 00:48:49
  TRACK 25 AUDIO
    TITLE "2:cjc133_1031"
    INDEX 01 00:50:23
  TRACK 26 AUDIO
    TITLE "2:cjc133_1032"
    INDEX 01 00:54:09
  TRACK 27 AUDIO
    TITLE "0:"
    INDEX 01 00:56:72
  TRACK 28 AUDIO
    TITLE "2:cjc133_1033"
    INDEX 01 00:57:43
  TRACK 29 AUDIO
    TITLE "2:cjc133_1034"
    INDEX 01 01:00:08
  TRACK 30 AUDIO
    TITLE "2:cjc133_1035"
    INDEX 01 01:03:41
  TRACK 31 AUDIO
    TITLE "0:"
    INDEX 01 01:06:08
  TRACK 32 AUDIO
    TITLE "2:cjc133_1036"
    INDEX 01 01:06:57
  TRACK 33 AUDIO
    TITLE "2:cjc133_1037"
    INDEX 01 01:07:74
  TRACK 34 AUDIO
    TITLE "2:cjc133_1038"
    INDEX 01 01:11:35
  TRACK 35 AUDIO
    TITLE "0:"
    INDEX 01 01:14:06
  TRACK 36 AUDIO
    TITLE "2:cjc133_1039"
    INDEX 01 01:14:57
  TRACK 37 AUDIO
    TITLE "2:cjc133_1040"
    INDEX 01 01:16:69
  TRACK 38 AUDIO
    TITLE "2:cjc133_1041"
    INDEX 01 01:20:30
  TRACK 39 AUDIO
    TITLE "0:"
    INDEX 01 01:23:11
  TRACK 40 AUDIO
    TITLE "2:cjc133_1042"
    INDEX 01 01:23:52
  TRACK 41 AUDIO
    TITLE "2:cjc133_1043"
    INDEX 01 01:24:59
  TRACK 42 AUDIO
    TITLE "2:cjc133_1044"
    INDEX 01 01:28:12
  TRACK 43 AUDIO
    TITLE "0:"
    INDEX 01 01:30:48
  TRACK 44 AUDIO
    TITLE "2:cjc133_1045"
    INDEX 01 01:31:20
  TRACK 45 AUDIO
    TITLE "2:cjc133_1046"
    INDEX 01 01:33:05
  TRACK 46 AUDIO
    TITLE "2:cjc133_1047"
    INDEX 01 01:36:48
  TRACK 47 AUDIO
    TITLE "0:"
    INDEX 01 01:39:21
  TRACK 48 AUDIO
    TITLE "2:cjc133_1048"
    INDEX 01 01:39:72
  TRACK 49 AUDIO
    TITLE "2:cjc133_1049"
    INDEX 01 01:43:35
  TRACK 50 AUDIO
    TITLE "2:cjc133_1050"
    INDEX 01 01:46:59
  TRACK 51 AUDIO
    TITLE "0:"
    INDEX 01 01:49:08
  TRACK 52 AUDIO
    TITLE "2:cjc133_1051"
    INDEX 01 01:49:61
  TRACK 53 AUDIO
    TITLE "2:cjc133_1052"
    INDEX 01 01:51:17
  TRACK 54 AUDIO
    TITLE "2:cjc133_1053"
    INDEX 01 01:55:24
  TRACK 55 AUDIO
    TITLE "0:"
    INDEX 01 01:58:32
  TRACK 56 AUDIO
    TITLE "2:cjc133_1054"
    INDEX 01 01:59:08
  TRACK 57 AUDIO
    TITLE "2:cjc133_1055"
    INDEX 01 02:01:62
  TRACK 58 AUDIO
    TITLE "2:cjc133_1056"
    INDEX 01 02:05:27
  TRACK 59 AUDIO
    TITLE "0:"
    INDEX 01 02:08:00
  TRACK 60 AUDIO
    TITLE "2:cjc133_1057"
    INDEX 01 02:08:54
  TRACK 61 AUDIO
    TITLE "2:cjc133_1058"
    INDEX 01 02:09:71
  TRACK 62 AUDIO
    TITLE "2:cjc133_1059"
    INDEX 01 02:12:74
  TRACK 63 AUDIO
    TITLE "0:"
    INDEX 01 02:15:05
